<?xml version="1.0" encoding="UTF-8"?>
<svg width="38px" height="38px" viewBox="0 0 38 38" version="1.1" xmlns="http://www.w3.org/2000/svg" xmlns:xlink="http://www.w3.org/1999/xlink">
    <title>closing-x</title>
    <g id="closing-x" stroke="none" stroke-width="1" fill="none" fill-rule="evenodd">
        <path d="M37.7217514,0.278248558 C38.0695621,0.626059255 38.0913003,1.17646545 37.7869659,1.54960058 L37.7217514,1.62175144 L20.343,19 L37.7217514,36.3782486 C38.0927495,36.7492466 38.0927495,37.3507534 37.7217514,37.7217514 C37.3739407,38.0695621 36.8235346,38.0913003 36.4503994,37.7869659 L36.3782486,37.7217514 L19,20.343 L1.62175144,37.7217514 C1.25075336,38.0927495 0.649246635,38.0927495 0.278248558,37.7217514 C-0.0695621395,37.3739407 -0.0913003081,36.8235346 0.213034052,36.4503994 L0.278248558,36.3782486 L17.657,19 L0.278248558,1.62175144 C-0.0927495193,1.25075336 -0.0927495193,0.649246635 0.278248558,0.278248558 C0.626059255,-0.0695621395 1.17646545,-0.0913003081 1.54960058,0.213034052 L1.62175144,0.278248558 L19,17.657 L36.3782486,0.278248558 C36.7492466,-0.0927495193 37.3507534,-0.0927495193 37.7217514,0.278248558 Z" id="Combined-Shape" fill="#919191" fill-rule="nonzero"></path>
    </g>
</svg>