<?xml version="1.0" encoding="UTF-8"?>
<svg width="56px" height="30px" viewBox="0 0 56 30" version="1.1" xmlns="http://www.w3.org/2000/svg" xmlns:xlink="http://www.w3.org/1999/xlink">
    <title>coming-soon</title>
    <g id="coming-soon" stroke="none" stroke-width="1" fill="none" fill-rule="evenodd">
        <g id="Group" transform="translate(2.000000, 11.000000)" fill="#000000" fill-rule="nonzero">
            <path d="M22,2.71191406 C22.5522847,2.71191406 23,3.15962931 23,3.71191406 C23,4.2247499 22.6139598,4.64742122 22.1166211,4.70518633 L22,4.71191406 L0,4.71191406 C-0.55228475,4.71191406 -1,4.26419881 -1,3.71191406 C-1,3.19907822 -0.61395981,2.7764069 -0.116621125,2.71864179 L0,2.71191406 L22,2.71191406 Z" id="Path-3"></path>
            <path d="M27.8027344,7.31445312 C28.5026042,7.31445312 29.0926107,7.16227214 29.5727539,6.85791016 C30.0528971,6.55354818 30.3548177,6.09375 30.4785156,5.47851562 C30.6022135,4.85677083 30.5078125,4.36279297 30.1953125,3.99658203 C29.8828125,3.63037109 29.3766276,3.3219401 28.6767578,3.07128906 C28.1233724,2.85644531 27.7652995,2.67496745 27.6025391,2.52685547 C27.4397786,2.37874349 27.3909505,2.1468099 27.4560547,1.83105469 C27.4983724,1.62597656 27.6196289,1.45263672 27.8198242,1.31103516 C28.0200195,1.16943359 28.2389323,1.09863281 28.4765625,1.09863281 C28.8216146,1.09863281 29.0804036,1.19954427 29.2529297,1.40136719 C29.4254557,1.6031901 29.4791667,1.87174479 29.4140625,2.20703125 L29.4140625,2.20703125 L30.7763672,2.20703125 L30.7910156,2.17773438 C30.9375,1.50716146 30.8064779,0.9765625 30.3979492,0.5859375 C29.9894206,0.1953125 29.4222005,0 28.6962891,0 C28.0159505,0 27.4332682,0.159505208 26.9482422,0.478515625 C26.4632161,0.797526042 26.1621094,1.2516276 26.0449219,1.84082031 C25.9244792,2.43652344 26.0367839,2.91910807 26.3818359,3.28857422 C26.726888,3.65804036 27.2721354,3.97135417 28.0175781,4.22851562 C28.4733073,4.41731771 28.7784831,4.59391276 28.9331055,4.75830078 C29.0877279,4.9226888 29.1341146,5.16601562 29.0722656,5.48828125 C29.0266927,5.69986979 28.8997396,5.87483724 28.6914063,6.01318359 C28.4830729,6.15152995 28.2600911,6.22070312 28.0224609,6.22070312 C27.6546224,6.22070312 27.3527018,6.14013672 27.1166992,5.97900391 C26.8806966,5.81787109 26.805013,5.52734375 26.8896484,5.10742188 L26.8896484,5.10742188 L25.5224609,5.10742188 L25.5126953,5.13671875 C25.3466797,5.87890625 25.5086263,6.42740885 25.9985352,6.78222656 C26.488444,7.13704427 27.0898438,7.31445312 27.8027344,7.31445312 Z M34.024135,7.31445312 C34.8542132,7.31445312 35.558152,7.04915365 36.1359515,6.51855469 C36.7137509,5.98795573 37.0970517,5.25390625 37.2858538,4.31640625 L37.2858538,4.31640625 L37.53976,3.03710938 C37.7057757,2.19726562 37.5487119,1.48111979 37.0685686,0.888671875 C36.5884254,0.296223958 35.9577288,0 35.1764788,0 C34.3561663,0 33.6668759,0.266113281 33.1086077,0.798339844 C32.5503395,1.33056641 32.1768043,2.06542969 31.9880022,3.00292969 L31.9880022,3.00292969 L31.734096,4.28222656 C31.5648251,5.12858073 31.7113095,5.84554036 32.1735491,6.43310547 C32.6357887,7.02067057 33.2526507,7.31445312 34.024135,7.31445312 Z M34.2438616,6.20605469 C33.7978981,6.20605469 33.4723772,6.03108724 33.2672991,5.68115234 C33.062221,5.33121745 33.0182757,4.86490885 33.1354632,4.28222656 L33.1354632,4.28222656 L33.3942522,2.99316406 C33.5049293,2.43001302 33.695359,1.97591146 33.9655413,1.63085938 C34.2357236,1.28580729 34.5661272,1.11328125 34.9567522,1.11328125 C35.4092262,1.11328125 35.7469541,1.2882487 35.9699358,1.63818359 C36.1929176,1.98811849 36.2474423,2.45117188 36.13351,3.02734375 L36.13351,3.02734375 L35.8796038,4.31640625 C35.7656715,4.87630208 35.5638486,5.33121745 35.274135,5.68115234 C34.9844215,6.03108724 34.640997,6.20605469 34.2438616,6.20605469 Z M40.7972935,7.31445312 C41.6273717,7.31445312 42.3313105,7.04915365 42.9091099,6.51855469 C43.4869094,5.98795573 43.8702102,5.25390625 44.0590123,4.31640625 L44.0590123,4.31640625 L44.3129185,3.03710938 C44.4789342,2.19726562 44.3218703,1.48111979 43.8417271,0.888671875 C43.3615839,0.296223958 42.7308873,0 41.9496373,0 C41.1293248,0 40.4400344,0.266113281 39.8817662,0.798339844 C39.323498,1.33056641 38.9499628,2.06542969 38.7611607,3.00292969 L38.7611607,3.00292969 L38.5072545,4.28222656 C38.3379836,5.12858073 38.484468,5.84554036 38.9467076,6.43310547 C39.4089472,7.02067057 40.0258092,7.31445312 40.7972935,7.31445312 Z M41.0170201,6.20605469 C40.5710565,6.20605469 40.2455357,6.03108724 40.0404576,5.68115234 C39.8353795,5.33121745 39.7914342,4.86490885 39.9086217,4.28222656 L39.9086217,4.28222656 L40.1674107,2.99316406 C40.2780878,2.43001302 40.4685175,1.97591146 40.7386998,1.63085938 C41.0088821,1.28580729 41.3392857,1.11328125 41.7299107,1.11328125 C42.1823847,1.11328125 42.5201125,1.2882487 42.7430943,1.63818359 C42.9660761,1.98811849 43.0206008,2.45117188 42.9066685,3.02734375 L42.9066685,3.02734375 L42.6527623,4.31640625 C42.53883,4.87630208 42.3370071,5.33121745 42.0472935,5.68115234 C41.75758,6.03108724 41.4141555,6.20605469 41.0170201,6.20605469 Z M46.2911551,7.21191406 L47.2335379,2.48535156 L47.2628348,2.48535156 L48.8692801,7.21191406 L50.2755301,7.21191406 L51.6964286,0.102539062 L50.2901786,0.102539062 L49.3429129,4.82421875 L49.3136161,4.82421875 L47.7120536,0.102539062 L46.3058036,0.102539062 L44.8849051,7.21191406 L46.2911551,7.21191406 Z" id="SOON"></path>
        </g>
    </g>
</svg>