<?xml version="1.0" encoding="UTF-8"?>
<svg width="690px" height="154px" viewBox="0 0 690 154" version="1.1" xmlns="http://www.w3.org/2000/svg" xmlns:xlink="http://www.w3.org/1999/xlink">
    <title>Group</title>
    <g id="design" stroke="none" stroke-width="1" fill="none" fill-rule="evenodd">
        <g id="Artboard-Copy" transform="translate(-119.000000, -81.000000)">
            <g id="Group" transform="translate(120.000000, 82.000000)">
                <path d="M291.308,45 L301.855,17.178 L305.016,16.112 L305.016,15.054 L293.562,15.054 L293.562,16.066 C294.788667,16.4033333 296.030667,16.6793333 297.288,16.894 C297.707111,16.9655556 298.126222,17.0337037 298.545333,17.0984444 L299.114,17.182 L289.844,42.456 L280.964,17.106 L285.696,16.112 L285.696,15.054 L273.92,15.054 L273.92,16.066 C274.809333,16.4033333 275.714,16.6793333 276.634,16.894 C276.864,16.9476667 277.093042,16.9994167 277.321125,17.04925 L277.339,17.054 L287.628,45 L291.308,45 Z M308.391524,17.584 C308.943524,17.492 309.495524,17.2926667 310.047524,16.986 C310.599524,16.6793333 311.04419,16.3113333 311.381524,15.882 C311.32019,15.33 311.128524,14.7856667 310.806524,14.249 C310.484524,13.7123333 310.108857,13.2446667 309.679524,12.846 C309.096857,12.938 308.53719,13.1373333 308.000524,13.444 C307.463857,13.7506667 307.011524,14.134 306.643524,14.594 C306.76619,15.146 306.980857,15.6903333 307.287524,16.227 C307.59419,16.7636667 307.96219,17.216 308.391524,17.584 Z M314.279524,45 L314.279524,44.08 L310.691524,43.16 L310.691524,22.276 C309.740857,22.3986667 308.83619,22.6133333 307.977524,22.92 C307.118857,23.2266667 306.30619,23.61 305.539524,24.07 L305.539524,24.07 L307.885524,26.922 L307.425524,43.068 C306.81219,43.1906667 306.221857,43.3363333 305.654524,43.505 C305.08719,43.6736667 304.573524,43.8653333 304.113524,44.08 L304.113524,44.08 L304.113524,45 L314.279524,45 Z M324.923047,45.322 C327.652381,45.322 329.883381,44.793 331.616047,43.735 C333.348714,42.677 334.215047,41.2126667 334.215047,39.342 C334.215047,38.2073333 333.908381,37.2413333 333.295047,36.444 C332.681714,35.6466667 331.892047,34.949 330.926047,34.351 C329.960047,33.753 328.932714,33.2163333 327.844047,32.741 C326.755381,32.2656667 325.728047,31.7903333 324.762047,31.315 C323.796047,30.8396667 323.006381,30.2953333 322.393047,29.682 C321.779714,29.0686667 321.473047,28.3633333 321.473047,27.566 C321.473047,26.9526667 321.634047,26.347 321.956047,25.749 C322.134936,25.4167778 322.368249,25.1295144 322.655986,24.8872099 L322.759,24.807 L322.86327,24.7957778 C323.03364,24.7787407 323.202307,24.7634074 323.36927,24.7497778 L323.865047,24.714 C324.355714,24.6833333 324.831047,24.668 325.291047,24.668 C326.395047,24.668 327.552714,24.76 328.764047,24.944 C329.369714,25.036 329.988797,25.151 330.621297,25.289 L330.862,25.344 L332.053047,29.452 L333.295047,29.452 L333.387047,23.15 C332.313714,22.8433333 331.271047,22.6286667 330.259047,22.506 C329.247047,22.3833333 328.296381,22.322 327.407047,22.322 C324.769714,22.322 322.638381,22.8433333 321.013047,23.886 C319.387714,24.9286667 318.575047,26.37 318.575047,28.21 C318.575047,29.3753333 318.889381,30.372 319.518047,31.2 C320.146714,32.028 320.944047,32.741 321.910047,33.339 C322.876047,33.937 323.903381,34.489 324.992047,34.995 C326.080714,35.501 327.108047,35.9916667 328.074047,36.467 C329.040047,36.9423333 329.829714,37.4483333 330.443047,37.985 C331.056381,38.5216667 331.363047,39.1733333 331.363047,39.94 C331.363047,40.676 331.110047,41.3736667 330.604047,42.033 C330.379159,42.326037 330.134582,42.581214 329.870319,42.7985309 L329.798,42.855 L329.369714,42.8942222 L329.369714,42.8942222 L328.879047,42.93 C328.388381,42.9606667 327.882381,42.976 327.361047,42.976 C326.073047,42.976 324.762047,42.8763333 323.428047,42.677 C322.761047,42.5773333 322.084464,42.4565833 321.398297,42.31475 L320.76,42.177 L319.587047,37.548 L318.299047,37.548 L318.115047,44.31 L318.725186,44.4850556 C319.73676,44.7619074 320.721714,44.9642222 321.680047,45.092 C322.830047,45.2453333 323.911047,45.322 324.923047,45.322 Z M348.170571,45.368 C348.323904,45.368 348.477238,45.3603333 348.630571,45.345 C348.783904,45.3296667 348.952571,45.322 349.136571,45.322 C350.240571,44.862 351.283238,44.2946667 352.264571,43.62 C353.245904,42.9453333 354.181238,42.1326667 355.070571,41.182 L354.85,41.41 L354.888009,41.5715625 C355.024571,42.1058333 355.212045,42.5891927 355.45043,43.0216406 L355.599571,43.275 C356.013571,43.9343333 356.511904,44.425 357.094571,44.747 C357.677238,45.069 358.290571,45.23 358.934571,45.23 C359.455904,45.23 359.954238,45.1226667 360.429571,44.908 C360.904904,44.6933333 361.334238,44.3483333 361.717571,43.873 C362.100904,43.3976667 362.384571,42.8073333 362.568571,42.102 L362.568571,42.102 L357.922571,42.332 L357.922571,22.276 C356.143904,22.5213333 354.426571,23.1193333 352.770571,24.07 L352.770571,24.07 L355.116571,26.922 L354.76,40.467 L354.719518,40.4977341 C352.990887,41.7974571 351.262255,42.483422 349.533624,42.5556288 L349.228571,42.562 C347.472501,42.562 345.802357,41.9482419 344.218139,40.7207258 L344.076,40.608 L344.076571,22.276 C342.502349,22.5008889 340.928127,23.0221157 339.353904,23.8396806 L338.924571,24.07 L341.316571,26.922 L340.902571,41.734 L341.157647,42.0413056 C342.100541,43.1423241 343.127182,43.9598889 344.237571,44.494 C345.448904,45.0766667 346.759904,45.368 348.170571,45.368 Z M372.292095,45.46 C373.702761,44.9693333 374.967761,44.356 376.087095,43.62 C376.886619,43.0942857 377.666585,42.5059864 378.426993,41.855102 L378.677,41.636 L378.705965,41.7353609 C378.9963,42.6952821 379.42273,43.4601341 379.985255,44.0299172 L380.158095,44.195 C380.924761,44.885 381.768095,45.23 382.688095,45.23 C383.240095,45.23 383.776761,45.1073333 384.298095,44.862 C384.819428,44.6166667 385.271761,44.2563333 385.655095,43.781 C386.038428,43.3056667 386.322095,42.7153333 386.506095,42.01 L386.506095,42.01 L381.860095,42.194 L381.860095,25.91 C380.817428,24.7753333 379.621428,23.8936667 378.272095,23.265 C376.922761,22.6363333 375.466095,22.322 373.902095,22.322 C372.460761,22.322 371.165095,22.5596667 370.015095,23.035 C368.865095,23.5103333 367.945095,24.1543333 367.255095,24.967 C366.565095,25.7796667 366.220095,26.6766667 366.220095,27.658 C366.220095,28.394 366.450095,29.015 366.910095,29.521 C367.370095,30.027 368.044761,30.3873333 368.934095,30.602 L368.934095,30.602 L369.649,24.718 L369.831095,24.691 C370.279595,24.6335 370.732407,24.5975625 371.189532,24.5831875 L371.648095,24.576 C374.561428,24.576 377.030095,25.404 379.054095,27.06 L379.054095,27.06 L378.87,32.189 L378.618424,32.2481867 C376.421873,32.7732 374.554068,33.2540533 373.01501,33.6907467 L372.637095,33.799 C370.781761,34.3356667 369.348095,34.8723333 368.336095,35.409 C367.324095,35.9456667 366.618761,36.536 366.220095,37.18 C365.821428,37.824 365.622095,38.5906667 365.622095,39.48 C365.622095,41.228 366.235428,42.654 367.462095,43.758 C368.688761,44.862 370.298761,45.4293333 372.292095,45.46 Z M372.798095,42.746 C371.510095,42.746 370.544095,42.3856667 369.900095,41.665 C369.256095,40.9443333 368.934095,39.94 368.934095,38.652 C368.934095,38.2226667 368.980095,37.7396667 369.072095,37.203 C369.118095,36.9346667 369.171761,36.6759167 369.233095,36.42675 L369.329,36.064 L378.801,34.109 L378.561,40.776 L378.522539,40.8003704 C377.725206,41.3046667 376.958539,41.7067407 376.222539,42.0065926 L375.857095,42.148 C374.768428,42.5466667 373.748761,42.746 372.798095,42.746 Z M398.391618,45 L398.391618,44.08 L394.803618,43.16 L394.803618,10.868 C393.852952,10.9906667 392.955952,11.2053333 392.112618,11.512 C391.269285,11.8186667 390.448952,12.202 389.651618,12.662 L389.651618,12.662 L392.043618,15.652 L391.583619,43.068 C390.816952,43.2213333 390.172952,43.3823333 389.651618,43.551 C389.130285,43.7196667 388.654952,43.896 388.225618,44.08 L388.225618,44.08 L388.225618,45 L398.391618,45 Z M416.780666,45.46 C418.191333,44.9693333 419.456333,44.356 420.575666,43.62 C421.37519,43.0942857 422.155156,42.5059864 422.915564,41.855102 L423.166,41.636 L423.194536,41.7353609 C423.484871,42.6952821 423.911301,43.4601341 424.473826,44.0299172 L424.646666,44.195 C425.413333,44.885 426.256666,45.23 427.176666,45.23 C427.728666,45.23 428.265333,45.1073333 428.786666,44.862 C429.307999,44.6166667 429.760333,44.2563333 430.143666,43.781 C430.526999,43.3056667 430.810666,42.7153333 430.994666,42.01 L430.994666,42.01 L426.348666,42.194 L426.348666,25.91 C425.305999,24.7753333 424.109999,23.8936667 422.760666,23.265 C421.411333,22.6363333 419.954666,22.322 418.390666,22.322 C416.949333,22.322 415.653666,22.5596667 414.503666,23.035 C413.353666,23.5103333 412.433666,24.1543333 411.743666,24.967 C411.053666,25.7796667 410.708666,26.6766667 410.708666,27.658 C410.708666,28.394 410.938666,29.015 411.398666,29.521 C411.858666,30.027 412.533333,30.3873333 413.422666,30.602 L413.422666,30.602 L414.137,24.718 L414.319666,24.691 C414.768166,24.6335 415.220978,24.5975625 415.678103,24.5831875 L416.136666,24.576 C419.049999,24.576 421.518666,25.404 423.542666,27.06 L423.542666,27.06 L423.358,32.189 L423.106995,32.2481867 C420.910444,32.7732 419.042639,33.2540533 417.503581,33.6907467 L417.125666,33.799 C415.270333,34.3356667 413.836666,34.8723333 412.824666,35.409 C411.812666,35.9456667 411.107333,36.536 410.708666,37.18 C410.309999,37.824 410.110666,38.5906667 410.110666,39.48 C410.110666,41.228 410.723999,42.654 411.950666,43.758 C413.177333,44.862 414.787333,45.4293333 416.780666,45.46 Z M417.286666,42.746 C415.998666,42.746 415.032666,42.3856667 414.388666,41.665 C413.744666,40.9443333 413.422666,39.94 413.422666,38.652 C413.422666,38.2226667 413.468666,37.7396667 413.560666,37.203 C413.606666,36.9346667 413.660333,36.6759167 413.721666,36.42675 L413.818,36.064 L423.289,34.109 L423.049,40.776 L423.01111,40.8003704 C422.213777,41.3046667 421.44711,41.7067407 420.71111,42.0065926 L420.345666,42.148 C419.256999,42.5466667 418.237333,42.746 417.286666,42.746 Z M443.06419,45 L443.06419,44.08 L439.47619,43.16 L439.476,27.223 L439.783154,26.9969252 C441.459032,25.7954035 443.124036,25.1593038 444.778167,25.088626 L445.08819,25.082 C447.02019,25.082 448.829523,25.8333333 450.51619,27.336 L450.51619,27.336 L450.725,27.229 L450.988,27.093 L451.174,26.997 L451.319,26.922 L451.433,26.863 L451.595,26.779 L451.849,26.648 L451.994,26.573 L452.03,26.554 L452.239,26.446 L452.365,26.381 L452.603,26.258 L452.711,26.202 L452.8,26.156 L452.939,26.084 L453.03,26.037 L453.249,25.924 L453.27619,25.91 C452.348523,24.7855556 451.337109,23.9381227 450.241947,23.3677014 L449.94119,23.219 C448.729856,22.6516667 447.418856,22.368 446.00819,22.368 L446.00819,22.368 L445.57119,22.368 C445.402523,22.368 445.22619,22.3833333 445.04219,22.414 C443.968856,22.874 442.941523,23.4413333 441.96019,24.116 C440.978856,24.7906667 440.02819,25.6033333 439.10819,26.554 L439.45,26.21 L439.15419,22.276 C437.579967,22.529 436.095935,23.0525694 434.702092,23.8467083 L434.32419,24.07 L436.67019,26.922 L436.21019,43.068 C435.47419,43.2213333 434.845523,43.3823333 434.32419,43.551 C433.802856,43.7196667 433.327523,43.896 432.89819,44.08 L432.89819,44.08 L432.89819,45 L443.06419,45 Z M456.91019,45 L456.91019,44.08 L453.27619,43.16 L453.27619,25.91 L453.249,25.924 L453.03,26.037 L452.939,26.084 L452.8,26.156 L452.711,26.202 L452.603,26.258 L452.365,26.381 L452.239,26.446 L452.03,26.554 L451.994,26.573 L451.849,26.648 L451.595,26.779 L451.433,26.863 L451.319,26.922 L451.174,26.997 L450.988,27.093 L450.725,27.229 L450.51619,27.336 L450.05619,43.068 C449.32019,43.1906667 448.691523,43.344 448.17019,43.528 C447.648856,43.712 447.15819,43.896 446.69819,44.08 L446.69819,44.08 L446.69819,45 L456.91019,45 Z M469.853713,45.368 C470.927047,44.8773333 471.939047,44.2793333 472.889713,43.574 C473.84038,42.8686667 474.699047,42.1173333 475.465713,41.32 L475.233,41.554 L475.237151,41.5715625 C475.373713,42.1058333 475.561187,42.5891927 475.799573,43.0216406 L475.948713,43.275 C476.362713,43.9343333 476.868713,44.425 477.466713,44.747 C478.064713,45.069 478.67038,45.23 479.283713,45.23 C479.805047,45.23 480.30338,45.1226667 480.778713,44.908 C481.254047,44.6933333 481.675713,44.3483333 482.043713,43.873 C482.411713,43.3976667 482.703047,42.8073333 482.917713,42.102 L482.917713,42.102 L478.317713,42.332 L478.317713,10.868 C477.305713,11.0213333 476.401047,11.2436667 475.603713,11.535 C474.80638,11.8263333 474.039713,12.1866667 473.303713,12.616 L473.303713,12.616 L475.511713,15.652 L475.394,22.786 L474.910033,22.68448 L474.910033,22.68448 L474.315713,22.575 C473.33438,22.4063333 472.383713,22.322 471.463713,22.322 C467.99838,22.322 465.246047,23.3723333 463.206713,25.473 C461.16738,27.5736667 460.147713,30.4946667 460.147713,34.236 C460.147713,36.4746667 460.531047,38.4296667 461.297713,40.101 C462.06438,41.7723333 463.14538,43.068 464.540713,43.988 C465.936047,44.908 467.553713,45.368 469.393713,45.368 L469.393713,45.368 L469.853713,45.368 Z M469.669713,42.608 C468.443047,42.608 467.33138,42.2783333 466.334713,41.619 C465.338047,40.9596667 464.563713,39.986 464.011713,38.698 C463.459713,37.41 463.183713,35.846 463.183713,34.006 C463.183713,32.4113333 463.37538,30.878 463.758713,29.406 C464.056861,28.2611111 464.452405,27.2182551 464.945343,26.2774321 L465.159,25.886 L465.46353,25.742898 C465.905693,25.5438776 466.352081,25.3702041 466.802693,25.2218776 L467.254713,25.082 C468.312713,24.7753333 469.42438,24.622 470.589713,24.622 C471.947809,24.622 473.399781,24.8410476 474.945632,25.2791429 L475.351,25.4 L475.102,40.621 L474.793318,40.8355802 C474.123195,41.2876296 473.459886,41.6510864 472.803392,41.9259506 L472.475713,42.056 C471.49438,42.424 470.559047,42.608 469.669713,42.608 Z M503.560761,45.368 C504.634094,44.8773333 505.646094,44.2793333 506.596761,43.574 C507.547427,42.8686667 508.406094,42.1173333 509.172761,41.32 L508.94,41.554 L508.944198,41.5715625 C509.080761,42.1058333 509.268235,42.5891927 509.50662,43.0216406 L509.655761,43.275 C510.069761,43.9343333 510.575761,44.425 511.173761,44.747 C511.771761,45.069 512.377427,45.23 512.990761,45.23 C513.512094,45.23 514.010427,45.1226667 514.485761,44.908 C514.961094,44.6933333 515.382761,44.3483333 515.750761,43.873 C516.118761,43.3976667 516.410094,42.8073333 516.624761,42.102 L516.624761,42.102 L512.024761,42.332 L512.024761,10.868 C511.012761,11.0213333 510.108094,11.2436667 509.310761,11.535 C508.513427,11.8263333 507.746761,12.1866667 507.010761,12.616 L507.010761,12.616 L509.218761,15.652 L509.101,22.786 L508.617081,22.68448 L508.617081,22.68448 L508.022761,22.575 C507.041427,22.4063333 506.090761,22.322 505.170761,22.322 C501.705427,22.322 498.953094,23.3723333 496.913761,25.473 C494.874427,27.5736667 493.854761,30.4946667 493.854761,34.236 C493.854761,36.4746667 494.238094,38.4296667 495.004761,40.101 C495.771427,41.7723333 496.852427,43.068 498.247761,43.988 C499.643094,44.908 501.260761,45.368 503.100761,45.368 L503.100761,45.368 L503.560761,45.368 Z M503.376761,42.608 C502.150094,42.608 501.038427,42.2783333 500.041761,41.619 C499.045094,40.9596667 498.270761,39.986 497.718761,38.698 C497.166761,37.41 496.890761,35.846 496.890761,34.006 C496.890761,32.4113333 497.082427,30.878 497.465761,29.406 C497.763909,28.2611111 498.159452,27.2182551 498.65239,26.2774321 L498.866,25.886 L499.170577,25.742898 C499.61274,25.5438776 500.059128,25.3702041 500.50974,25.2218776 L500.961761,25.082 C502.019761,24.7753333 503.131427,24.622 504.296761,24.622 C505.654856,24.622 507.106829,24.8410476 508.652679,25.2791429 L509.058,25.4 L508.809,40.621 L508.500366,40.8355802 C507.830242,41.2876296 507.166934,41.6510864 506.51044,41.9259506 L506.182761,42.056 C505.201427,42.424 504.266094,42.608 503.376761,42.608 Z M520.460284,54.292 C522.790951,54.292 524.791951,53.372 526.463284,51.532 C528.134618,49.692 529.690951,46.794 531.132284,42.838 L531.132284,42.838 L537.785,24.857 L539.872284,23.702 L539.872284,22.736 L531.592284,22.736 L531.592284,23.702 C532.512284,24.07 533.447618,24.3766667 534.398284,24.622 C534.588418,24.6710667 534.779164,24.7170667 534.970524,24.76 L535.378,24.845 L529.246284,42.148 C529.181118,42.3243333 529.11631,42.4979115 529.051863,42.6687344 L529.029,42.726 L522.842,24.647 L526.072284,23.702 L526.072284,22.736 L517.194284,22.736 L517.194284,23.702 C517.807618,24.0393333 518.451618,24.3306667 519.126284,24.576 L519.126284,24.576 L519.489,24.701 L526.716284,44.586 L528.479,44.138 L528.295738,44.5863594 C528.172592,44.8839219 528.050883,45.1704635 527.930613,45.4459844 L527.751284,45.851 C527.275951,46.909 526.762284,47.8903333 526.210284,48.795 C525.658284,49.6996667 524.983618,50.658 524.186284,51.67 L524.186284,51.67 L516.182284,51.164 L515.952284,53.464 C516.780284,53.74 517.569951,53.947 518.321284,54.085 C519.072618,54.223 519.785618,54.292 520.460284,54.292 Z M551.527808,45 L551.527808,44.08 L547.939808,43.16 L547.939,27.224 L548.246772,26.9969252 C549.92265,25.7954035 551.587655,25.1593038 553.241786,25.088626 L553.551808,25.082 C555.483808,25.082 557.293141,25.8333333 558.979808,27.336 L558.979808,27.336 L559.188,27.229 L559.451,27.093 L559.637,26.997 L559.782,26.922 L559.896,26.863 L560.058,26.779 L560.312,26.648 L560.457,26.573 L560.493,26.554 L560.702,26.446 L560.828,26.381 L561.066,26.258 L561.174,26.202 L561.263,26.156 L561.402,26.084 L561.493,26.037 L561.712,25.924 L561.739808,25.91 C560.812141,24.7855556 559.800727,23.9381227 558.705565,23.3677014 L558.404808,23.219 C557.193475,22.6516667 555.882475,22.368 554.471808,22.368 L554.471808,22.368 L554.034808,22.368 C553.866141,22.368 553.689808,22.3833333 553.505808,22.414 C552.432475,22.874 551.405141,23.4413333 550.423808,24.116 C549.442475,24.7906667 548.491808,25.6033333 547.571808,26.554 L547.913,26.21 L547.617808,22.276 C546.043586,22.529 544.559553,23.0525694 543.165711,23.8467083 L542.787808,24.07 L545.133808,26.922 L544.673808,43.068 C543.937808,43.2213333 543.309141,43.3823333 542.787808,43.551 C542.266475,43.7196667 541.791141,43.896 541.361808,44.08 L541.361808,44.08 L541.361808,45 L551.527808,45 Z M565.373808,45 L565.373808,44.08 L561.739808,43.16 L561.739808,25.91 L561.712,25.924 L561.493,26.037 L561.402,26.084 L561.263,26.156 L561.174,26.202 L561.066,26.258 L560.828,26.381 L560.702,26.446 L560.493,26.554 L560.457,26.573 L560.312,26.648 L560.058,26.779 L559.896,26.863 L559.782,26.922 L559.637,26.997 L559.451,27.093 L559.188,27.229 L558.979808,27.336 L558.519808,43.068 C557.783808,43.1906667 557.155141,43.344 556.633808,43.528 C556.112475,43.712 555.621808,43.896 555.161808,44.08 L555.161808,44.08 L555.161808,45 L565.373808,45 Z M575.419332,45.46 C576.829998,44.9693333 578.094998,44.356 579.214332,43.62 C580.013856,43.0942857 580.793822,42.5059864 581.55423,41.855102 L581.805,41.636 L581.833202,41.7353609 C582.123537,42.6952821 582.549967,43.4601341 583.112492,44.0299172 L583.285332,44.195 C584.051998,44.885 584.895332,45.23 585.815332,45.23 C586.367332,45.23 586.903998,45.1073333 587.425332,44.862 C587.946665,44.6166667 588.398998,44.2563333 588.782332,43.781 C589.165665,43.3056667 589.449332,42.7153333 589.633332,42.01 L589.633332,42.01 L584.987332,42.194 L584.987332,25.91 C583.944665,24.7753333 582.748665,23.8936667 581.399332,23.265 C580.049998,22.6363333 578.593332,22.322 577.029332,22.322 C575.587998,22.322 574.292332,22.5596667 573.142332,23.035 C571.992332,23.5103333 571.072332,24.1543333 570.382332,24.967 C569.692332,25.7796667 569.347332,26.6766667 569.347332,27.658 C569.347332,28.394 569.577332,29.015 570.037332,29.521 C570.497332,30.027 571.171998,30.3873333 572.061332,30.602 L572.061332,30.602 L572.776,24.718 L572.958332,24.691 C573.406832,24.6335 573.859644,24.5975625 574.316769,24.5831875 L574.775332,24.576 C577.688665,24.576 580.157332,25.404 582.181332,27.06 L582.181332,27.06 L581.997,32.189 L581.745661,32.2481867 C579.54911,32.7732 577.681305,33.2540533 576.142247,33.6907467 L575.764332,33.799 C573.908998,34.3356667 572.475332,34.8723333 571.463332,35.409 C570.451332,35.9456667 569.745998,36.536 569.347332,37.18 C568.948665,37.824 568.749332,38.5906667 568.749332,39.48 C568.749332,41.228 569.362665,42.654 570.589332,43.758 C571.815998,44.862 573.425998,45.4293333 575.419332,45.46 Z M575.925332,42.746 C574.637332,42.746 573.671332,42.3856667 573.027332,41.665 C572.383332,40.9443333 572.061332,39.94 572.061332,38.652 C572.061332,38.2226667 572.107332,37.7396667 572.199332,37.203 C572.245332,36.9346667 572.298998,36.6759167 572.360332,36.42675 L572.457,36.064 L581.928,34.109 L581.688,40.776 L581.649776,40.8003704 C580.852443,41.3046667 580.085776,41.7067407 579.349776,42.0065926 L578.984332,42.148 C577.895665,42.5466667 576.875998,42.746 575.925332,42.746 Z M629.348856,45 L629.348856,44.08 L625.760855,43.16 L625.760855,25.91 L625.732,25.924 L625.51,26.037 L625.418,26.084 L625.276,26.156 L625.217,26.186 L625.186,26.202 L625.076,26.258 L624.834,26.381 L624.706,26.446 L624.494,26.554 L624.456,26.573 L624.309,26.648 L624.132,26.738 L624.051,26.779 L623.886,26.863 L623.77,26.922 L623.623,26.997 L623.434,27.093 L623.166,27.229 L622.954856,27.336 L622.540856,43.068 C621.774189,43.1906667 621.130189,43.344 620.608856,43.528 C620.087522,43.712 619.612189,43.896 619.182855,44.08 L619.182855,44.08 L619.182855,45 L629.348856,45 Z M608.694856,43.068 C607.958856,43.1906667 607.330189,43.344 606.808855,43.528 C606.287522,43.712 605.796855,43.896 605.336855,44.08 L605.336855,44.08 L605.336855,45 L615.548855,45 L615.548855,44.08 L611.914855,43.16 L611.914,27.259 L611.953465,27.2288366 C613.73553,25.8771247 615.505319,25.1637211 617.262833,25.088626 L617.572856,25.082 C619.504856,25.082 621.298855,25.8333333 622.954856,27.336 L622.954856,27.336 L623.166,27.229 L623.434,27.093 L623.623,26.997 L623.77,26.922 L623.886,26.863 L624.051,26.779 L624.132,26.738 L624.309,26.648 L624.456,26.573 L624.494,26.554 L624.706,26.446 L624.834,26.381 L625.076,26.258 L625.186,26.202 L625.217,26.186 L625.276,26.156 L625.418,26.084 L625.51,26.037 L625.732,25.924 L625.760855,25.91 C624.805078,24.7855556 623.784879,23.9381227 622.700258,23.3677014 L622.402855,23.219 C621.206856,22.6516667 619.903522,22.368 618.492856,22.368 L618.492856,22.368 L618.055856,22.368 C617.887189,22.368 617.710855,22.3833333 617.526856,22.414 C616.453522,22.874 615.426189,23.4413333 614.444856,24.116 C613.743903,24.5979048 613.058597,25.1502177 612.388937,25.7729388 L612.011,26.135 L611.790432,25.8636806 C610.90983,24.8137731 609.970663,24.0087731 608.972932,23.4486806 L608.671855,23.288 C607.460522,22.6746667 606.134189,22.368 604.692855,22.368 L604.692855,22.368 L604.209856,22.368 C604.041189,22.368 603.864855,22.3833333 603.680856,22.414 C602.607522,22.874 601.580189,23.4413333 600.598856,24.116 C599.617522,24.7906667 598.666856,25.6033333 597.746856,26.554 L598.088,26.211 L597.792856,22.276 C596.218633,22.529 594.734601,23.0525694 593.340758,23.8467083 L592.962855,24.07 L595.308855,26.922 L594.848856,43.068 C594.112856,43.2213333 593.484189,43.3823333 592.962855,43.551 C592.441522,43.7196667 591.966189,43.896 591.536856,44.08 L591.536856,44.08 L591.536856,45 L601.702855,45 L601.702855,44.08 L598.114855,43.16 L598.114,27.224 L598.421819,26.9969252 C600.097698,25.7954035 601.762702,25.1593038 603.416833,25.088626 L603.726856,25.082 C605.658856,25.082 607.468189,25.8333333 609.154855,27.336 L609.154855,27.336 L608.694856,43.068 Z M636.358379,17.584 C636.910379,17.492 637.462379,17.2926667 638.014379,16.986 C638.566379,16.6793333 639.011046,16.3113333 639.348379,15.882 C639.287046,15.33 639.095379,14.7856667 638.773379,14.249 C638.451379,13.7123333 638.075713,13.2446667 637.646379,12.846 C637.063713,12.938 636.504046,13.1373333 635.967379,13.444 C635.430713,13.7506667 634.978379,14.134 634.610379,14.594 C634.733046,15.146 634.947713,15.6903333 635.254379,16.227 C635.561046,16.7636667 635.929046,17.216 636.358379,17.584 Z M642.246379,45 L642.246379,44.08 L638.658379,43.16 L638.658379,22.276 C637.707713,22.3986667 636.803046,22.6133333 635.944379,22.92 C635.085713,23.2266667 634.273046,23.61 633.506379,24.07 L633.506379,24.07 L635.852379,26.922 L635.392379,43.068 C634.779046,43.1906667 634.188713,43.3363333 633.621379,43.505 C633.054046,43.6736667 632.540379,43.8653333 632.080379,44.08 L632.080379,44.08 L632.080379,45 L642.246379,45 Z M654.453903,45.368 C657.213903,45.368 659.697903,44.1413333 661.905903,41.688 L661.905903,41.688 L661.629903,41.09 C660.617903,41.642 659.63657,42.0636667 658.685903,42.355 C657.735236,42.6463333 656.83057,42.792 655.971903,42.792 C654.53057,42.792 653.250236,42.424 652.130903,41.688 C651.01157,40.952 650.129903,39.9016667 649.485903,38.537 C648.841903,37.1723333 648.519903,35.5393333 648.519903,33.638 C648.519903,32.1353333 648.719236,30.648 649.117903,29.176 C649.427977,28.0311111 649.84936,26.960428 650.382051,25.9639506 L650.527,25.704 L650.567372,25.6837551 C650.933495,25.5110204 651.30525,25.3636327 651.682638,25.2415918 L652.061903,25.128 C652.951236,24.8826667 653.855903,24.76 654.775903,24.76 C656.100703,24.76 657.353743,24.92008 658.535023,25.24024 L658.899,25.345 L660.203903,29.958 L661.261903,29.958 L661.399903,23.61 C660.479903,23.2113333 659.536903,22.897 658.570903,22.667 C657.604903,22.437 656.631236,22.322 655.649903,22.322 C653.687236,22.322 651.93157,22.7973333 650.382903,23.748 C648.834236,24.6986667 647.622903,26.0556667 646.748903,27.819 C645.874903,29.5823333 645.437903,31.66 645.437903,34.052 C645.437903,36.26 645.821236,38.215 646.587903,39.917 C647.35457,41.619 648.420236,42.953 649.784903,43.919 C651.14957,44.885 652.705903,45.368 654.453903,45.368 Z M282.016,91.46 C283.426667,90.9693333 284.691667,90.356 285.811,89.62 C286.610524,89.0942857 287.39049,88.5059864 288.150898,87.855102 L288.401,87.636 L288.42987,87.7353609 C288.720205,88.6952821 289.146635,89.4601341 289.70916,90.0299172 L289.882,90.195 C290.648667,90.885 291.492,91.23 292.412,91.23 C292.964,91.23 293.500667,91.1073333 294.022,90.862 C294.543333,90.6166667 294.995667,90.2563333 295.379,89.781 C295.762333,89.3056667 296.046,88.7153333 296.23,88.01 L296.23,88.01 L291.584,88.194 L291.584,71.91 C290.541333,70.7753333 289.345333,69.8936667 287.996,69.265 C286.646667,68.6363333 285.19,68.322 283.626,68.322 C282.184667,68.322 280.889,68.5596667 279.739,69.035 C278.589,69.5103333 277.669,70.1543333 276.979,70.967 C276.289,71.7796667 275.944,72.6766667 275.944,73.658 C275.944,74.394 276.174,75.015 276.634,75.521 C277.094,76.027 277.768667,76.3873333 278.658,76.602 L278.658,76.602 L279.372,70.718 L279.555,70.691 C280.0035,70.6335 280.456313,70.5975625 280.913437,70.5831875 L281.372,70.576 C284.285333,70.576 286.754,71.404 288.778,73.06 L288.778,73.06 L288.594,78.189 L288.342329,78.2481867 C286.145778,78.7732 284.277973,79.2540533 282.738916,79.6907467 L282.361,79.799 C280.505667,80.3356667 279.072,80.8723333 278.06,81.409 C277.048,81.9456667 276.342667,82.536 275.944,83.18 C275.545333,83.824 275.346,84.5906667 275.346,85.48 C275.346,87.228 275.959333,88.654 277.186,89.758 C278.412667,90.862 280.022667,91.4293333 282.016,91.46 Z M282.522,88.746 C281.234,88.746 280.268,88.3856667 279.624,87.665 C278.98,86.9443333 278.658,85.94 278.658,84.652 C278.658,84.2226667 278.704,83.7396667 278.796,83.203 C278.842,82.9346667 278.895667,82.6759167 278.957,82.42675 L279.053,82.064 L288.525,80.109 L288.285,86.776 L288.246444,86.8003704 C287.449111,87.3046667 286.682444,87.7067407 285.946444,88.0065926 L285.581,88.148 C284.492333,88.5466667 283.472667,88.746 282.522,88.746 Z M309.817524,91 L309.817524,90.08 L304.711524,89.068 L304.711,73.682 L304.836989,73.60901 C307.253369,72.24833 309.806369,71.55833 312.495989,71.53901 L312.945524,71.542 L313.129524,69.38 C312.70019,69.104 312.26319,68.897 311.818524,68.759 C311.373857,68.621 310.875524,68.5213333 310.323524,68.46 C309.25019,69.0426667 308.222857,69.7096667 307.241524,70.461 C306.26019,71.2123333 305.324857,72.0786667 304.435524,73.06 L304.687,72.789 L304.389524,68.276 C302.815301,68.529 301.331269,69.0525694 299.937426,69.8467083 L299.559524,70.07 L301.905524,72.922 L301.445524,89.068 C300.709524,89.1906667 300.080857,89.344 299.559524,89.528 C299.03819,89.712 298.562857,89.896 298.133524,90.08 L298.133524,90.08 L298.133524,91 L309.817524,91 Z M327.085047,91 L327.085047,90.08 L321.979047,89.068 L321.979,73.682 L322.104512,73.60901 C324.520892,72.24833 327.073892,71.55833 329.763512,71.53901 L330.213047,71.542 L330.397047,69.38 C329.967714,69.104 329.530714,68.897 329.086047,68.759 C328.641381,68.621 328.143047,68.5213333 327.591047,68.46 C326.517714,69.0426667 325.490381,69.7096667 324.509047,70.461 C323.527714,71.2123333 322.592381,72.0786667 321.703047,73.06 L321.955,72.789 L321.657047,68.276 C320.082825,68.529 318.598793,69.0525694 317.20495,69.8467083 L316.827047,70.07 L319.173047,72.922 L318.713047,89.068 C317.977047,89.1906667 317.348381,89.344 316.827047,89.528 C316.305714,89.712 315.830381,89.896 315.401047,90.08 L315.401047,90.08 L315.401047,91 L327.085047,91 Z M340.258571,91.46 C341.669238,90.9693333 342.934238,90.356 344.053571,89.62 C344.853095,89.0942857 345.633061,88.5059864 346.393469,87.855102 L346.644,87.636 L346.672441,87.7353609 C346.962776,88.6952821 347.389206,89.4601341 347.951731,90.0299172 L348.124571,90.195 C348.891238,90.885 349.734571,91.23 350.654571,91.23 C351.206571,91.23 351.743238,91.1073333 352.264571,90.862 C352.785904,90.6166667 353.238238,90.2563333 353.621571,89.781 C354.004904,89.3056667 354.288571,88.7153333 354.472571,88.01 L354.472571,88.01 L349.826571,88.194 L349.826571,71.91 C348.783904,70.7753333 347.587904,69.8936667 346.238571,69.265 C344.889238,68.6363333 343.432571,68.322 341.868571,68.322 C340.427238,68.322 339.131571,68.5596667 337.981571,69.035 C336.831571,69.5103333 335.911571,70.1543333 335.221571,70.967 C334.531571,71.7796667 334.186571,72.6766667 334.186571,73.658 C334.186571,74.394 334.416571,75.015 334.876571,75.521 C335.336571,76.027 336.011238,76.3873333 336.900571,76.602 L336.900571,76.602 L337.615,70.718 L337.797571,70.691 C338.246071,70.6335 338.698884,70.5975625 339.156009,70.5831875 L339.614571,70.576 C342.527904,70.576 344.996571,71.404 347.020571,73.06 L347.020571,73.06 L346.836,78.189 L346.5849,78.2481867 C344.388349,78.7732 342.520544,79.2540533 340.981487,79.6907467 L340.603571,79.799 C338.748238,80.3356667 337.314571,80.8723333 336.302571,81.409 C335.290571,81.9456667 334.585238,82.536 334.186571,83.18 C333.787904,83.824 333.588571,84.5906667 333.588571,85.48 C333.588571,87.228 334.201904,88.654 335.428571,89.758 C336.655238,90.862 338.265238,91.4293333 340.258571,91.46 Z M340.764571,88.746 C339.476571,88.746 338.510571,88.3856667 337.866571,87.665 C337.222571,86.9443333 336.900571,85.94 336.900571,84.652 C336.900571,84.2226667 336.946571,83.7396667 337.038571,83.203 C337.084571,82.9346667 337.138238,82.6759167 337.199571,82.42675 L337.296,82.064 L346.767,80.109 L346.527,86.776 L346.489016,86.8003704 C345.691682,87.3046667 344.925016,87.7067407 344.189016,88.0065926 L343.823571,88.148 C342.734904,88.5466667 341.715238,88.746 340.764571,88.746 Z M366.542095,91 L366.542095,90.08 L362.954095,89.16 L362.954,73.223 L363.261059,72.9969252 C364.936937,71.7954035 366.601942,71.1593038 368.256073,71.088626 L368.566095,71.082 C370.498095,71.082 372.307428,71.8333333 373.994095,73.336 L373.994095,73.336 L374.201,73.229 L374.464,73.093 L374.65,72.997 L374.795,72.922 L374.909,72.863 L375.072,72.779 L375.326,72.648 L375.471,72.573 L375.508,72.554 L375.717,72.446 L375.842,72.381 L376.08,72.258 L376.189,72.202 L376.278,72.156 L376.417,72.084 L376.508,72.037 L376.727,71.924 L376.754095,71.91 C375.826428,70.7855556 374.815014,69.9381227 373.719852,69.3677014 L373.419095,69.219 C372.207761,68.6516667 370.896761,68.368 369.486095,68.368 L369.486095,68.368 L369.049095,68.368 C368.880428,68.368 368.704095,68.3833333 368.520095,68.414 C367.446761,68.874 366.419428,69.4413333 365.438095,70.116 C364.456761,70.7906667 363.506095,71.6033333 362.586095,72.554 L362.928,72.21 L362.632095,68.276 C361.057873,68.529 359.57384,69.0525694 358.179998,69.8467083 L357.802095,70.07 L360.148095,72.922 L359.688095,89.068 C358.952095,89.2213333 358.323428,89.3823333 357.802095,89.551 C357.280761,89.7196667 356.805428,89.896 356.376095,90.08 L356.376095,90.08 L356.376095,91 L366.542095,91 Z M380.388095,91 L380.388095,90.08 L376.754095,89.16 L376.754095,71.91 L376.727,71.924 L376.508,72.037 L376.417,72.084 L376.278,72.156 L376.189,72.202 L376.08,72.258 L375.842,72.381 L375.717,72.446 L375.508,72.554 L375.471,72.573 L375.326,72.648 L375.072,72.779 L374.909,72.863 L374.795,72.922 L374.65,72.997 L374.464,73.093 L374.201,73.229 L373.994095,73.336 L373.534095,89.068 C372.798095,89.1906667 372.169428,89.344 371.648095,89.528 C371.126761,89.712 370.636095,89.896 370.176095,90.08 L370.176095,90.08 L370.176095,91 L380.388095,91 Z M392.549619,100.476 C394.849619,100.476 396.881285,100.138667 398.644618,99.464 C400.407952,98.7893333 401.787952,97.8463333 402.784618,96.635 C403.781285,95.4236667 404.279618,94.0206667 404.279618,92.426 C404.279618,91.322 404.049618,90.3483333 403.589619,89.505 C403.129618,88.6616667 402.500952,87.9946667 401.703619,87.504 C400.906285,87.0133333 400.032285,86.768 399.081618,86.768 L399.081618,86.768 L388.547618,86.768 L388.623,82.683 L388.780435,82.7406531 C389.875047,83.1215873 391.137944,83.3279267 392.569124,83.3596712 L392.963618,83.364 C394.956952,83.364 396.674285,83.042 398.115618,82.398 C399.556952,81.754 400.676285,80.8416667 401.473619,79.661 C402.270952,78.4803333 402.669619,77.0926667 402.669619,75.498 C402.669619,73.2593333 401.864619,71.5036667 400.254618,70.231 L400.254618,70.231 L400.195,70.187 L400.783618,66.896 L405.429619,66.896 L405.751619,64.734 C405.199618,64.55 404.693618,64.4273333 404.233619,64.366 C403.773618,64.3046667 403.344285,64.274 402.945619,64.274 C401.626952,64.274 400.614952,64.573 399.909619,65.171 C399.204285,65.769 398.851618,66.6353333 398.851618,67.77 C398.851618,68.1686667 398.928285,68.6363333 399.081618,69.173 C399.112285,69.2803333 399.145405,69.38736 399.180979,69.49408 L399.193,69.531 L398.936431,69.3958125 C397.602814,68.7276625 395.979934,68.3713158 394.067791,68.3267725 L393.653618,68.322 C391.690952,68.322 389.988952,68.644 388.547618,69.288 C387.106285,69.932 386.002285,70.8443333 385.235618,72.025 C384.468952,73.2056667 384.085619,74.5933333 384.085619,76.188 C384.085619,78.4266667 384.867618,80.1823333 386.431619,81.455 C386.803999,81.7580159 387.21115,82.0249584 387.65307,82.2558277 L387.908,82.384 L387.838572,82.4400469 C387.509863,82.7227552 387.217572,83.0303802 386.961697,83.3629219 L386.776618,83.617 C386.301285,84.307 386.063619,85.02 386.063619,85.756 C386.063619,86.3693333 386.247618,87.021 386.615618,87.711 C386.901841,88.2476667 387.299372,88.7425926 387.808211,89.1957778 L387.904,89.278 L387.535618,89.4462222 C386.871174,89.7642469 386.249322,90.1343292 385.670063,90.5564691 L385.327618,90.816 C384.315618,91.6133333 383.487618,92.5486667 382.843618,93.622 C382.843618,95.7993333 383.717619,97.486 385.465619,98.682 C387.213618,99.878 389.574952,100.476 392.549619,100.476 Z M393.101618,81.248 C391.292285,81.248 389.843285,80.788 388.754618,79.868 C387.665952,78.948 387.121619,77.7213333 387.121619,76.188 C387.121619,75.544 387.251952,74.7926667 387.512619,73.934 C387.773285,73.0753333 388.164285,72.186 388.685619,71.266 C389.452285,71.0206667 390.241952,70.8366667 391.054619,70.714 C391.867285,70.5913333 392.641618,70.53 393.377618,70.53 C395.278952,70.53 396.796952,70.9823333 397.931619,71.887 C399.066285,72.7916667 399.633619,74.0566667 399.633619,75.682 C399.633619,77.3686667 399.050952,78.718 397.885619,79.73 C396.720285,80.742 395.125619,81.248 393.101618,81.248 Z M393.101618,98.13 C390.924285,98.13 389.191619,97.739 387.903618,96.957 C386.615618,96.175 385.971618,95.1093333 385.971618,93.76 C385.971618,93.116 386.224618,92.4106667 386.730618,91.644 C387.12819,91.041619 387.786076,90.3540442 388.704277,89.5812755 L388.714,89.574 L399.771618,89.574 C400.165904,89.9945714 400.481333,90.4658367 400.717904,90.9877959 L400.829619,91.253 C401.074952,91.8816667 401.197618,92.4566667 401.197618,92.978 C401.197618,94.5113333 400.453952,95.7533333 398.966618,96.704 C397.479285,97.6546667 395.524285,98.13 393.101618,98.13 Z M417.499142,91.368 C418.971142,91.368 420.435476,91.046 421.892142,90.402 C423.348809,89.758 424.705809,88.8073333 425.963142,87.55 L425.963142,87.55 L425.733142,86.952 C423.218476,88.1786667 420.933809,88.792 418.879142,88.792 C416.517809,88.792 414.631809,88.0023333 413.221142,86.423 C412.002839,85.0590303 411.310622,83.2090034 411.144489,80.8729194 L411.132,80.677 L411.394204,80.6710123 C412.800327,80.6414815 414.107636,80.598321 415.31613,80.5415309 L415.912142,80.512 C417.675476,80.42 419.354476,80.2896667 420.949142,80.121 C422.543809,79.9523333 424.184476,79.73 425.871142,79.454 L425.871142,79.454 L426.009142,76.51 C426.009142,74.8846667 425.679476,73.4663333 425.020142,72.255 C424.360809,71.0436667 423.433142,70.093 422.237142,69.403 C421.041142,68.713 419.645809,68.368 418.051142,68.368 C416.088476,68.368 414.363476,68.874 412.876142,69.886 C411.388809,70.898 410.238809,72.301 409.426142,74.095 C408.613476,75.889 408.207142,77.9206667 408.207142,80.19 C408.207142,82.398 408.590476,84.3453333 409.357142,86.032 C410.123809,87.7186667 411.212476,89.0296667 412.623142,89.965 C414.033809,90.9003333 415.659142,91.368 417.499142,91.368 Z M411.138,78.743 L411.139642,78.720875 C411.208642,77.714625 411.381142,76.717 411.657142,75.728 C412.025142,74.4093333 412.546476,73.1673333 413.221142,72.002 C413.926476,71.5726667 414.670142,71.2353333 415.452142,70.99 C416.234142,70.7446667 416.993142,70.622 417.729142,70.622 C419.354476,70.622 420.665476,71.1586667 421.662142,72.232 C422.658809,73.3053333 423.157142,74.716 423.157142,76.464 L423.157142,76.464 L423.065142,78.534 L411.138,78.743 Z M467.840666,91 L467.840666,90.08 L464.252666,89.16 L464.252666,71.91 L464.224,71.924 L464.002,72.037 L463.91,72.084 L463.768,72.156 L463.709,72.186 L463.677,72.202 L463.567,72.258 L463.325,72.381 L463.197,72.446 L462.985,72.554 L462.947,72.573 L462.8,72.648 L462.623,72.738 L462.542,72.779 L462.377,72.863 L462.261,72.922 L462.113,72.997 L461.924,73.093 L461.657,73.229 L461.446666,73.336 L461.032666,89.068 C460.265999,89.1906667 459.621999,89.344 459.100666,89.528 C458.579333,89.712 458.103999,89.896 457.674666,90.08 L457.674666,90.08 L457.674666,91 L467.840666,91 Z M447.186666,89.068 C446.450666,89.1906667 445.821999,89.344 445.300666,89.528 C444.779333,89.712 444.288666,89.896 443.828666,90.08 L443.828666,90.08 L443.828666,91 L454.040666,91 L454.040666,90.08 L450.406666,89.16 L450.406,73.259 L450.445275,73.2288366 C452.22734,71.8771247 453.997129,71.1637211 455.754644,71.088626 L456.064666,71.082 C457.996666,71.082 459.790666,71.8333333 461.446666,73.336 L461.446666,73.336 L461.657,73.229 L461.924,73.093 L462.113,72.997 L462.261,72.922 L462.377,72.863 L462.542,72.779 L462.623,72.738 L462.8,72.648 L462.947,72.573 L462.985,72.554 L463.197,72.446 L463.325,72.381 L463.567,72.258 L463.677,72.202 L463.709,72.186 L463.768,72.156 L463.91,72.084 L464.002,72.037 L464.224,71.924 L464.252666,71.91 C463.296888,70.7855556 462.276689,69.9381227 461.192069,69.3677014 L460.894666,69.219 C459.698666,68.6516667 458.395333,68.368 456.984666,68.368 L456.984666,68.368 L456.547666,68.368 C456.378999,68.368 456.202666,68.3833333 456.018666,68.414 C454.945333,68.874 453.917999,69.4413333 452.936666,70.116 C452.235714,70.5979048 451.550407,71.1502177 450.880748,71.7729388 L450.502,72.135 L450.282242,71.8636806 C449.40164,70.8137731 448.462474,70.0087731 447.464742,69.4486806 L447.163666,69.288 C445.952333,68.6746667 444.625999,68.368 443.184666,68.368 L443.184666,68.368 L442.701666,68.368 C442.532999,68.368 442.356666,68.3833333 442.172666,68.414 C441.099333,68.874 440.071999,69.4413333 439.090666,70.116 C438.109333,70.7906667 437.158666,71.6033333 436.238666,72.554 L436.58,72.21 L436.284666,68.276 C434.710444,68.529 433.226411,69.0525694 431.832569,69.8467083 L431.454666,70.07 L433.800666,72.922 L433.340666,89.068 C432.604666,89.2213333 431.975999,89.3823333 431.454666,89.551 C430.933333,89.7196667 430.457999,89.896 430.028666,90.08 L430.028666,90.08 L430.028666,91 L440.194666,91 L440.194666,90.08 L436.606666,89.16 L436.606,73.224 L436.91363,72.9969252 C438.589508,71.7954035 440.254513,71.1593038 441.908644,71.088626 L442.218666,71.082 C444.150666,71.082 445.959999,71.8333333 447.646666,73.336 L447.646666,73.336 L447.186666,89.068 Z M480.37019,91.368 C481.84219,91.368 483.306523,91.046 484.76319,90.402 C486.219856,89.758 487.576856,88.8073333 488.83419,87.55 L488.83419,87.55 L488.60419,86.952 C486.089523,88.1786667 483.804856,88.792 481.75019,88.792 C479.388856,88.792 477.502856,88.0023333 476.09219,86.423 C474.873887,85.0590303 474.181669,83.2090034 474.015537,80.8729194 L474.003,80.677 L474.265251,80.6710123 C475.671375,80.6414815 476.978683,80.598321 478.187177,80.5415309 L478.78319,80.512 C480.546523,80.42 482.225523,80.2896667 483.82019,80.121 C485.414856,79.9523333 487.055523,79.73 488.74219,79.454 L488.74219,79.454 L488.88019,76.51 C488.88019,74.8846667 488.550523,73.4663333 487.89119,72.255 C487.231856,71.0436667 486.30419,70.093 485.10819,69.403 C483.91219,68.713 482.516856,68.368 480.92219,68.368 C478.959523,68.368 477.234523,68.874 475.74719,69.886 C474.259856,70.898 473.109856,72.301 472.29719,74.095 C471.484523,75.889 471.07819,77.9206667 471.07819,80.19 C471.07819,82.398 471.461523,84.3453333 472.22819,86.032 C472.994856,87.7186667 474.083523,89.0296667 475.49419,89.965 C476.904856,90.9003333 478.53019,91.368 480.37019,91.368 Z M474.009,78.743 L474.01069,78.720875 C474.07969,77.714625 474.25219,76.717 474.52819,75.728 C474.89619,74.4093333 475.417523,73.1673333 476.09219,72.002 C476.797523,71.5726667 477.54119,71.2353333 478.32319,70.99 C479.10519,70.7446667 479.86419,70.622 480.60019,70.622 C482.225523,70.622 483.536523,71.1586667 484.53319,72.232 C485.529856,73.3053333 486.02819,74.716 486.02819,76.464 L486.02819,76.464 L485.93619,78.534 L474.009,78.743 Z M503.065713,91 L503.065713,90.08 L499.477713,89.16 L499.477,73.224 L499.784677,72.9969252 C501.460555,71.7954035 503.12556,71.1593038 504.779691,71.088626 L505.089713,71.082 C507.021713,71.082 508.831047,71.8333333 510.517713,73.336 L510.517713,73.336 L510.724,73.229 L510.987,73.093 L511.173,72.997 L511.318,72.922 L511.432,72.863 L511.595,72.779 L511.849,72.648 L511.994,72.573 L512.031,72.554 L512.24,72.446 L512.365,72.381 L512.603,72.258 L512.712,72.202 L512.801,72.156 L512.94,72.084 L513.031,72.037 L513.25,71.924 L513.277713,71.91 C512.350047,70.7855556 511.338632,69.9381227 510.24347,69.3677014 L509.942713,69.219 C508.73138,68.6516667 507.42038,68.368 506.009713,68.368 L506.009713,68.368 L505.572713,68.368 C505.404047,68.368 505.227713,68.3833333 505.043713,68.414 C503.97038,68.874 502.943047,69.4413333 501.961713,70.116 C500.98038,70.7906667 500.029713,71.6033333 499.109713,72.554 L499.451,72.21 L499.155713,68.276 C497.581491,68.529 496.097459,69.0525694 494.703616,69.8467083 L494.325713,70.07 L496.671713,72.922 L496.211713,89.068 C495.475713,89.2213333 494.847047,89.3823333 494.325713,89.551 C493.80438,89.7196667 493.329047,89.896 492.899713,90.08 L492.899713,90.08 L492.899713,91 L503.065713,91 Z M516.911713,91 L516.911713,90.08 L513.277713,89.16 L513.277713,71.91 L513.25,71.924 L513.031,72.037 L512.94,72.084 L512.801,72.156 L512.712,72.202 L512.603,72.258 L512.365,72.381 L512.24,72.446 L512.031,72.554 L511.994,72.573 L511.849,72.648 L511.595,72.779 L511.432,72.863 L511.318,72.922 L511.173,72.997 L510.987,73.093 L510.724,73.229 L510.517713,73.336 L510.057713,89.068 C509.321713,89.1906667 508.693047,89.344 508.171713,89.528 C507.65038,89.712 507.159713,89.896 506.699713,90.08 L506.699713,90.08 L506.699713,91 L516.911713,91 Z M527.509237,91.368 C528.245237,91.368 528.981237,91.2606667 529.717237,91.046 C530.453237,90.8313333 531.143237,90.494 531.787237,90.034 C532.431237,89.574 532.967904,89.022 533.397237,88.378 L533.397237,88.378 L525.485237,88.47 L525.485237,70.714 L533.259237,70.714 L533.443237,68.782 L525.485237,68.782 L525.485237,65.194 C524.319904,65.8686667 523.24657,66.6123333 522.265237,67.425 C521.283904,68.2376667 520.34857,69.104 519.459237,70.024 L519.459237,70.024 L519.459237,70.714 L522.771237,70.714 L522.219237,88.424 C522.64857,89.4053333 523.346237,90.1413333 524.312237,90.632 C525.278237,91.1226667 526.343904,91.368 527.509237,91.368 Z M544.132761,91.322 C546.862094,91.322 549.093094,90.793 550.825761,89.735 C552.558427,88.677 553.424761,87.2126667 553.424761,85.342 C553.424761,84.2073333 553.118094,83.2413333 552.504761,82.444 C551.891427,81.6466667 551.101761,80.949 550.135761,80.351 C549.169761,79.753 548.142427,79.2163333 547.053761,78.741 C545.965094,78.2656667 544.937761,77.7903333 543.971761,77.315 C543.005761,76.8396667 542.216094,76.2953333 541.602761,75.682 C540.989427,75.0686667 540.682761,74.3633333 540.682761,73.566 C540.682761,72.9526667 540.843761,72.347 541.165761,71.749 C541.34465,71.4167778 541.577962,71.1295144 541.865699,70.8872099 L541.968,70.807 L542.072983,70.7957778 C542.243353,70.7787407 542.41202,70.7634074 542.578983,70.7497778 L543.074761,70.714 C543.565427,70.6833333 544.040761,70.668 544.500761,70.668 C545.604761,70.668 546.762427,70.76 547.973761,70.944 C548.579427,71.036 549.198511,71.151 549.831011,71.289 L550.071,71.344 L551.262761,75.452 L552.504761,75.452 L552.596761,69.15 C551.523427,68.8433333 550.480761,68.6286667 549.468761,68.506 C548.456761,68.3833333 547.506094,68.322 546.616761,68.322 C543.979427,68.322 541.848094,68.8433333 540.222761,69.886 C538.597427,70.9286667 537.784761,72.37 537.784761,74.21 C537.784761,75.3753333 538.099094,76.372 538.727761,77.2 C539.356427,78.028 540.153761,78.741 541.119761,79.339 C542.085761,79.937 543.113094,80.489 544.201761,80.995 C545.290427,81.501 546.317761,81.9916667 547.283761,82.467 C548.249761,82.9423333 549.039427,83.4483333 549.652761,83.985 C550.266094,84.5216667 550.572761,85.1733333 550.572761,85.94 C550.572761,86.676 550.319761,87.3736667 549.813761,88.033 C549.588872,88.326037 549.344296,88.581214 549.080032,88.7985309 L549.008,88.855 L548.579427,88.8942222 L548.579427,88.8942222 L548.088761,88.93 C547.598094,88.9606667 547.092094,88.976 546.570761,88.976 C545.282761,88.976 543.971761,88.8763333 542.637761,88.677 C541.970761,88.5773333 541.294177,88.4565833 540.608011,88.31475 L539.969,88.177 L538.796761,83.548 L537.508761,83.548 L537.324761,90.31 L537.9349,90.4850556 C538.946474,90.7619074 539.931427,90.9642222 540.889761,91.092 C542.039761,91.2453333 543.120761,91.322 544.132761,91.322 Z M575.861808,91.368 C577.885808,91.368 579.656808,90.8773333 581.174808,89.896 C582.692808,88.9146667 583.881141,87.5346667 584.739808,85.756 C585.598475,83.9773333 586.027808,81.9073333 586.027808,79.546 C586.027808,77.338 585.621475,75.3906667 584.808808,73.704 C583.996141,72.0173333 582.869141,70.6986667 581.427808,69.748 C579.986475,68.7973333 578.299808,68.322 576.367808,68.322 C574.405141,68.322 572.672475,68.828 571.169808,69.84 C569.667141,70.852 568.494141,72.2473333 567.650808,74.026 C566.807475,75.8046667 566.385808,77.8746667 566.385808,80.236 C566.385808,82.444 566.776808,84.3913333 567.558808,86.078 C568.340808,87.7646667 569.444808,89.068 570.870808,89.988 C572.296808,90.908 573.960475,91.368 575.861808,91.368 Z M576.137808,89.252 C574.849808,89.252 573.707475,88.8763333 572.710808,88.125 C571.714141,87.3736667 570.932141,86.3003333 570.364808,84.905 C569.797475,83.5096667 569.513808,81.8766667 569.513808,80.006 C569.513808,78.4113333 569.713141,76.8856667 570.111808,75.429 C570.421882,74.296037 570.852541,73.1955391 571.403783,72.1275062 L571.58,71.797 L571.848308,71.6685 C572.233558,71.49025 572.608027,71.3357187 572.971714,71.2049062 L573.331808,71.082 C574.282475,70.7753333 575.187141,70.622 576.045808,70.622 C577.425808,70.622 578.629475,70.99 579.656808,71.726 C580.684141,72.462 581.481475,73.5046667 582.048808,74.854 C582.616141,76.2033333 582.899808,77.8286667 582.899808,79.73 C582.899808,81.662 582.616141,83.3486667 582.048808,84.79 C581.481475,86.2313333 580.691808,87.3353333 579.679808,88.102 C578.667808,88.8686667 577.487141,89.252 576.137808,89.252 Z M601.179332,91 L601.179332,90.08 L596.717332,89.16 L596.717,70.714 L603.157332,70.714 L603.341332,68.782 L596.671332,68.782 C596.671332,66.666 596.763332,64.8336667 596.947332,63.285 C597.131332,61.7363333 597.407332,60.64 597.775332,59.996 C598.327332,59.904 598.886998,59.835 599.454332,59.789 C600.021665,59.743 600.581332,59.72 601.133332,59.72 C601.593332,59.72 602.076332,59.7353333 602.582332,59.766 C603.088332,59.7966667 603.586665,59.8426667 604.077332,59.904 L604.077332,59.904 L604.077332,56.96 C603.801332,56.9293333 603.525332,56.9063333 603.249332,56.891 C602.973332,56.8756667 602.712665,56.868 602.467332,56.868 C601.117998,56.868 599.914332,57.1133333 598.856332,57.604 C597.798332,58.0946667 596.901332,58.8306667 596.165332,59.812 C595.429332,60.7933333 594.869665,62.0276667 594.486332,63.515 C594.102998,65.0023333 593.880665,66.758 593.819332,68.782 C593.083332,68.874 592.400998,69.0273333 591.772332,69.242 C591.143665,69.4566667 590.522665,69.7326667 589.909332,70.07 L589.909332,70.07 L589.909332,70.714 L593.847,70.714 L593.497332,89.068 C592.957598,89.1906667 592.471838,89.31824 592.040052,89.45072 L591.726332,89.551 C591.220332,89.7196667 590.752665,89.896 590.323332,90.08 L590.323332,90.08 L590.323332,91 L601.179332,91 Z M284.592,137 L284.592,136.08 L281.004,135.16 L281.004,119.223 L281.310964,118.996925 C282.986842,117.795404 284.651847,117.159304 286.305978,117.088626 L286.616,117.082 C288.548,117.082 290.357333,117.833333 292.044,119.336 L292.044,119.336 L292.251,119.229 L292.514,119.093 L292.7,118.997 L292.845,118.922 L292.959,118.863 L293.122,118.779 L293.376,118.648 L293.521,118.573 L293.558,118.554 L293.767,118.446 L293.892,118.381 L294.13,118.258 L294.239,118.202 L294.328,118.156 L294.467,118.084 L294.558,118.037 L294.777,117.924 L294.804,117.91 C293.876333,116.785556 292.864919,115.938123 291.769757,115.367701 L291.469,115.219 C290.257667,114.651667 288.946667,114.368 287.536,114.368 L287.536,114.368 L287.099,114.368 C286.930333,114.368 286.754,114.383333 286.57,114.414 C285.496667,114.874 284.469333,115.441333 283.488,116.116 C282.506667,116.790667 281.556,117.603333 280.636,118.554 L280.978,118.21 L280.682,114.276 C279.107778,114.529 277.623745,115.052569 276.229903,115.846708 L275.852,116.07 L278.198,118.922 L277.738,135.068 C277.002,135.221333 276.373333,135.382333 275.852,135.551 C275.330667,135.719667 274.855333,135.896 274.426,136.08 L274.426,136.08 L274.426,137 L284.592,137 Z M298.438,137 L298.438,136.08 L294.804,135.16 L294.804,117.91 L294.777,117.924 L294.558,118.037 L294.467,118.084 L294.328,118.156 L294.239,118.202 L294.13,118.258 L293.892,118.381 L293.767,118.446 L293.558,118.554 L293.521,118.573 L293.376,118.648 L293.122,118.779 L292.959,118.863 L292.845,118.922 L292.7,118.997 L292.514,119.093 L292.251,119.229 L292.044,119.336 L291.584,135.068 C290.848,135.190667 290.219333,135.344 289.698,135.528 C289.176667,135.712 288.686,135.896 288.226,136.08 L288.226,136.08 L288.226,137 L298.438,137 Z M308.483524,137.46 C309.89419,136.969333 311.15919,136.356 312.278524,135.62 C313.078048,135.094286 313.858013,134.505986 314.618422,133.855102 L314.869,133.636 L314.897394,133.735361 C315.187729,134.695282 315.614159,135.460134 316.176683,136.029917 L316.349524,136.195 C317.11619,136.885 317.959524,137.23 318.879524,137.23 C319.431524,137.23 319.96819,137.107333 320.489524,136.862 C321.010857,136.616667 321.46319,136.256333 321.846524,135.781 C322.229857,135.305667 322.513524,134.715333 322.697524,134.01 L322.697524,134.01 L318.051524,134.194 L318.051524,117.91 C317.008857,116.775333 315.812857,115.893667 314.463524,115.265 C313.11419,114.636333 311.657524,114.322 310.093524,114.322 C308.65219,114.322 307.356524,114.559667 306.206524,115.035 C305.056524,115.510333 304.136524,116.154333 303.446524,116.967 C302.756524,117.779667 302.411524,118.676667 302.411524,119.658 C302.411524,120.394 302.641524,121.015 303.101524,121.521 C303.561524,122.027 304.23619,122.387333 305.125524,122.602 L305.125524,122.602 L305.84,116.718 L306.022524,116.691 C306.471024,116.6335 306.923836,116.597562 307.380961,116.583188 L307.839524,116.576 C310.752857,116.576 313.221524,117.404 315.245524,119.06 L315.245524,119.06 L315.061,124.189 L314.809853,124.248187 C312.613301,124.7732 310.745497,125.254053 309.206439,125.690747 L308.828524,125.799 C306.97319,126.335667 305.539524,126.872333 304.527524,127.409 C303.515524,127.945667 302.81019,128.536 302.411524,129.18 C302.012857,129.824 301.813524,130.590667 301.813524,131.48 C301.813524,133.228 302.426857,134.654 303.653524,135.758 C304.88019,136.862 306.49019,137.429333 308.483524,137.46 Z M308.989524,134.746 C307.701524,134.746 306.735524,134.385667 306.091524,133.665 C305.447524,132.944333 305.125524,131.94 305.125524,130.652 C305.125524,130.222667 305.171524,129.739667 305.263524,129.203 C305.309524,128.934667 305.36319,128.675917 305.424524,128.42675 L305.521,128.064 L314.992,126.109 L314.752,132.776 L314.713968,132.80037 C313.916635,133.304667 313.149968,133.706741 312.413968,134.006593 L312.048524,134.148 C310.959857,134.546667 309.94019,134.746 308.989524,134.746 Z M336.285047,137 L336.285047,136.08 L331.179047,135.068 L331.179,119.682 L331.304512,119.60901 C333.720892,118.24833 336.273892,117.55833 338.963512,117.53901 L339.413047,117.542 L339.597047,115.38 C339.167714,115.104 338.730714,114.897 338.286047,114.759 C337.841381,114.621 337.343047,114.521333 336.791047,114.46 C335.717714,115.042667 334.690381,115.709667 333.709047,116.461 C332.727714,117.212333 331.792381,118.078667 330.903047,119.06 L331.155,118.789 L330.857047,114.276 C329.282825,114.529 327.798793,115.052569 326.40495,115.846708 L326.027047,116.07 L328.373047,118.922 L327.913047,135.068 C327.177047,135.190667 326.548381,135.344 326.027047,135.528 C325.505714,135.712 325.030381,135.896 324.601047,136.08 L324.601047,136.08 L324.601047,137 L336.285047,137 Z M353.552571,137 L353.552571,136.08 L348.446571,135.068 L348.446,119.683 L348.572036,119.60901 C350.988416,118.24833 353.541416,117.55833 356.231036,117.53901 L356.680571,117.542 L356.864571,115.38 C356.435238,115.104 355.998238,114.897 355.553571,114.759 C355.108904,114.621 354.610571,114.521333 354.058571,114.46 C352.985238,115.042667 351.957904,115.709667 350.976571,116.461 C349.995238,117.212333 349.059904,118.078667 348.170571,119.06 L348.422,118.789 L348.124571,114.276 C346.550349,114.529 345.066316,115.052569 343.672474,115.846708 L343.294571,116.07 L345.640571,118.922 L345.180571,135.068 C344.444571,135.190667 343.815904,135.344 343.294571,135.528 C342.773238,135.712 342.297904,135.896 341.868571,136.08 L341.868571,136.08 L341.868571,137 L353.552571,137 Z M366.726095,137.46 C368.136761,136.969333 369.401761,136.356 370.521095,135.62 C371.320619,135.094286 372.100585,134.505986 372.860993,133.855102 L373.111,133.636 L373.139965,133.735361 C373.4303,134.695282 373.85673,135.460134 374.419255,136.029917 L374.592095,136.195 C375.358761,136.885 376.202095,137.23 377.122095,137.23 C377.674095,137.23 378.210761,137.107333 378.732095,136.862 C379.253428,136.616667 379.705761,136.256333 380.089095,135.781 C380.472428,135.305667 380.756095,134.715333 380.940095,134.01 L380.940095,134.01 L376.294095,134.194 L376.294095,117.91 C375.251428,116.775333 374.055428,115.893667 372.706095,115.265 C371.356761,114.636333 369.900095,114.322 368.336095,114.322 C366.894761,114.322 365.599095,114.559667 364.449095,115.035 C363.299095,115.510333 362.379095,116.154333 361.689095,116.967 C360.999095,117.779667 360.654095,118.676667 360.654095,119.658 C360.654095,120.394 360.884095,121.015 361.344095,121.521 C361.804095,122.027 362.478761,122.387333 363.368095,122.602 L363.368095,122.602 L364.083,116.718 L364.265095,116.691 C364.713595,116.6335 365.166407,116.597562 365.623532,116.583188 L366.082095,116.576 C368.995428,116.576 371.464095,117.404 373.488095,119.06 L373.488095,119.06 L373.304,124.189 L373.052424,124.248187 C370.855873,124.7732 368.988068,125.254053 367.44901,125.690747 L367.071095,125.799 C365.215761,126.335667 363.782095,126.872333 362.770095,127.409 C361.758095,127.945667 361.052761,128.536 360.654095,129.18 C360.255428,129.824 360.056095,130.590667 360.056095,131.48 C360.056095,133.228 360.669428,134.654 361.896095,135.758 C363.122761,136.862 364.732761,137.429333 366.726095,137.46 Z M367.232095,134.746 C365.944095,134.746 364.978095,134.385667 364.334095,133.665 C363.690095,132.944333 363.368095,131.94 363.368095,130.652 C363.368095,130.222667 363.414095,129.739667 363.506095,129.203 C363.552095,128.934667 363.605761,128.675917 363.667095,128.42675 L363.763,128.064 L373.235,126.109 L372.995,132.776 L372.956539,132.80037 C372.159206,133.304667 371.392539,133.706741 370.656539,134.006593 L370.291095,134.148 C369.202428,134.546667 368.182761,134.746 367.232095,134.746 Z M390.985618,137.368 C391.721618,137.368 392.457618,137.260667 393.193618,137.046 C393.929619,136.831333 394.619619,136.494 395.263619,136.034 C395.907619,135.574 396.444285,135.022 396.873619,134.378 L396.873619,134.378 L388.961618,134.47 L388.961618,116.714 L396.735618,116.714 L396.919618,114.782 L388.961618,114.782 L388.961618,111.194 C387.796285,111.868667 386.722952,112.612333 385.741618,113.425 C384.760285,114.237667 383.824952,115.104 382.935618,116.024 L382.935618,116.024 L382.935618,116.714 L386.247618,116.714 L385.695619,134.424 C386.124952,135.405333 386.822618,136.141333 387.788618,136.632 C388.754618,137.122667 389.820285,137.368 390.985618,137.368 Z M403.929142,109.584 C404.481142,109.492 405.033142,109.292667 405.585142,108.986 C406.137142,108.679333 406.581809,108.311333 406.919142,107.882 C406.857809,107.33 406.666142,106.785667 406.344142,106.249 C406.022142,105.712333 405.646476,105.244667 405.217142,104.846 C404.634476,104.938 404.074809,105.137333 403.538142,105.444 C403.001476,105.750667 402.549142,106.134 402.181142,106.594 C402.303809,107.146 402.518476,107.690333 402.825142,108.227 C403.131809,108.763667 403.499809,109.216 403.929142,109.584 Z M409.817142,137 L409.817142,136.08 L406.229142,135.16 L406.229142,114.276 C405.278476,114.398667 404.373809,114.613333 403.515142,114.92 C402.656476,115.226667 401.843809,115.61 401.077142,116.07 L401.077142,116.07 L403.423142,118.922 L402.963142,135.068 C402.349809,135.190667 401.759476,135.336333 401.192142,135.505 C400.624809,135.673667 400.111142,135.865333 399.651142,136.08 L399.651142,136.08 L399.651142,137 L409.817142,137 Z M420.460666,137.276 C421.257999,137.214667 421.886666,137.145667 422.346666,137.069 C422.806666,136.992333 423.166999,136.862 423.427666,136.678 C423.688333,136.494 423.902999,136.241 424.071666,135.919 C424.240333,135.597 424.416666,135.175333 424.600666,134.654 L424.600666,134.654 L431.246,116.861 L433.340666,115.702 L433.340666,114.736 L425.014666,114.736 L425.014666,115.702 C426.155466,116.1436 427.301786,116.49136 428.453626,116.74528 L428.847,116.827 L422.492,134.613 L416.351,116.635 L419.540666,115.702 L419.540666,114.736 L410.662666,114.736 L410.662666,115.702 C411.275999,116.039333 411.912333,116.330667 412.571666,116.576 L412.571666,116.576 L412.963,116.713 L420.460666,137.276 Z M444.26019,137.368 C445.73219,137.368 447.196523,137.046 448.65319,136.402 C450.109856,135.758 451.466856,134.807333 452.72419,133.55 L452.72419,133.55 L452.49419,132.952 C449.979523,134.178667 447.694856,134.792 445.64019,134.792 C443.278856,134.792 441.392856,134.002333 439.98219,132.423 C438.763887,131.05903 438.071669,129.209003 437.905537,126.872919 L437.893,126.677 L438.155251,126.671012 C439.561375,126.641481 440.868683,126.598321 442.077177,126.541531 L442.67319,126.512 C444.436523,126.42 446.115523,126.289667 447.71019,126.121 C449.304856,125.952333 450.945523,125.73 452.63219,125.454 L452.63219,125.454 L452.77019,122.51 C452.77019,120.884667 452.440523,119.466333 451.78119,118.255 C451.121856,117.043667 450.19419,116.093 448.99819,115.403 C447.80219,114.713 446.406856,114.368 444.81219,114.368 C442.849523,114.368 441.124523,114.874 439.63719,115.886 C438.149856,116.898 436.999856,118.301 436.18719,120.095 C435.374523,121.889 434.96819,123.920667 434.96819,126.19 C434.96819,128.398 435.351523,130.345333 436.11819,132.032 C436.884856,133.718667 437.973523,135.029667 439.38419,135.965 C440.794856,136.900333 442.42019,137.368 444.26019,137.368 Z M437.899,124.743 L437.90069,124.720875 C437.96969,123.714625 438.14219,122.717 438.41819,121.728 C438.78619,120.409333 439.307523,119.167333 439.98219,118.002 C440.687523,117.572667 441.43119,117.235333 442.21319,116.99 C442.99519,116.744667 443.75419,116.622 444.49019,116.622 C446.115523,116.622 447.426523,117.158667 448.42319,118.232 C449.419856,119.305333 449.91819,120.716 449.91819,122.464 L449.91819,122.464 L449.82619,124.534 L437.899,124.743 Z M465.023713,137.322 C467.753047,137.322 469.984047,136.793 471.716713,135.735 C473.44938,134.677 474.315713,133.212667 474.315713,131.342 C474.315713,130.207333 474.009047,129.241333 473.395713,128.444 C472.78238,127.646667 471.992713,126.949 471.026713,126.351 C470.060713,125.753 469.03338,125.216333 467.944713,124.741 C466.856047,124.265667 465.828713,123.790333 464.862713,123.315 C463.896713,122.839667 463.107047,122.295333 462.493713,121.682 C461.88038,121.068667 461.573713,120.363333 461.573713,119.566 C461.573713,118.952667 461.734713,118.347 462.056713,117.749 C462.235602,117.416778 462.468915,117.129514 462.756652,116.88721 L462.859,116.807 L462.963936,116.795778 C463.134306,116.778741 463.302973,116.763407 463.469936,116.749778 L463.965713,116.714 C464.45638,116.683333 464.931713,116.668 465.391713,116.668 C466.495713,116.668 467.65338,116.76 468.864713,116.944 C469.47038,117.036 470.089463,117.151 470.721963,117.289 L470.962,117.344 L472.153713,121.452 L473.395713,121.452 L473.487713,115.15 C472.41438,114.843333 471.371713,114.628667 470.359713,114.506 C469.347713,114.383333 468.397047,114.322 467.507713,114.322 C464.87038,114.322 462.739047,114.843333 461.113713,115.886 C459.48838,116.928667 458.675713,118.37 458.675713,120.21 C458.675713,121.375333 458.990047,122.372 459.618713,123.2 C460.24738,124.028 461.044713,124.741 462.010713,125.339 C462.976713,125.937 464.004047,126.489 465.092713,126.995 C466.18138,127.501 467.208713,127.991667 468.174713,128.467 C469.140713,128.942333 469.93038,129.448333 470.543713,129.985 C471.157047,130.521667 471.463713,131.173333 471.463713,131.94 C471.463713,132.676 471.210713,133.373667 470.704713,134.033 C470.479824,134.326037 470.235248,134.581214 469.970985,134.798531 L469.898,134.855 L469.47038,134.894222 L469.47038,134.894222 L468.979713,134.93 C468.489047,134.960667 467.983047,134.976 467.461713,134.976 C466.173713,134.976 464.862713,134.876333 463.528713,134.677 C462.861713,134.577333 462.18513,134.456583 461.498963,134.31475 L460.86,134.177 L459.687713,129.548 L458.399713,129.548 L458.215713,136.31 L458.825852,136.485056 C459.837426,136.761907 460.82238,136.964222 461.780713,137.092 C462.930713,137.245333 464.011713,137.322 465.023713,137.322 Z" id="Visualanddynamicarrangementsofnarratives" fill="#000000" fill-rule="nonzero"></path>
                <g id="Group-17" stroke="#000000">
                    <polygon id="Rectangle" fill="#5484FF" points="0 20.6983211 71 0.216855318 71 70.7353895 0 91.2168553"></polygon>
                    <polygon id="Rectangle-Copy-18" fill="#737DE1" points="35 29.9106201 75 18.2168553 75 58.5230906 35 70.2168553"></polygon>
                    <polygon id="Rectangle-Copy-28" fill="#9B75BD" points="46 55.9106201 86 44.2168553 86 84.5230906 46 96.2168553"></polygon>
                    <polygon id="Rectangle-Copy-18" fill="#B86FA2" points="78 37.7786806 118 26.2168553 118 96.6550301 78 108.216855"></polygon>
                    <polygon id="Rectangle-Copy-24" fill="#D76884" points="99 57.3667799 139 45.2168553 139 116.066931 99 128.216855"></polygon>
                    <polygon id="Rectangle-Copy-25" fill="#F2626C" points="137 58.179558 158 52.2168553 158 123.254153 137 129.216855"></polygon>
                    <polygon id="Rectangle-Copy-26" fill="#FF6060" points="131 79.6983211 202 59.2168553 202 129.735389 131 150.216855"></polygon>
                    <line x1="0" y1="20.2168553" x2="131" y2="81.2168553" id="Path-8"></line>
                    <line x1="0" y1="91.2168553" x2="131" y2="151.216855" id="Path-9"></line>
                    <line x1="71" y1="0.216855318" x2="202" y2="60.2168553" id="Path-10"></line>
                </g>
            </g>
        </g>
    </g>
</svg>