<?xml version="1.0" encoding="UTF-8"?>
<svg width="210px" height="359px" viewBox="0 0 210 359" version="1.1" xmlns="http://www.w3.org/2000/svg" xmlns:xlink="http://www.w3.org/1999/xlink">
    <title>Group</title>
    <g id="design" stroke="none" stroke-width="1" fill="none" fill-rule="evenodd">
        <g id="Artboard" transform="translate(-131.000000, -57.000000)">
            <g id="Group" transform="translate(132.000000, 58.000000)">
                <text id="Visual-and-dynamic-a" font-family="Piazzolla-Light, Piazzolla" font-size="24" font-weight="300" line-spacing="24" letter-spacing="0.0571428" fill="#000000">
                    <tspan x="0" y="271.216855">Visual and dynamic </tspan>
                    <tspan x="0" y="295.216855">arrangements of </tspan>
                    <tspan x="0" y="319.216855">narratives</tspan>
                </text>
                <path d="M25.4003906,230.216855 L42.6660156,181.873105 L34.0664062,181.873105 L22.5117187,217.632871 L21.6816406,220.91998 L21.4824219,220.91998 L20.6191406,217.566465 L9.09765625,181.873105 L0.498046875,181.873105 L17.7304687,230.216855 L25.4003906,230.216855 Z M57.1384671,230.216855 L57.1384671,181.873105 L49.0701077,181.873105 L49.0701077,230.216855 L57.1384671,230.216855 Z M83.9956842,230.216855 C90.1271946,230.216855 95.1131972,228.313209 98.953692,224.505918 C102.794187,220.698626 104.714434,215.773496 104.714434,209.730527 L104.714434,209.730527 L104.714434,202.392637 C104.714434,196.371803 102.794187,191.446673 98.953692,187.617246 C95.1131972,183.787819 90.1271946,181.873105 83.9956842,181.873105 L83.9956842,181.873105 L68.3238092,181.873105 L68.3238092,230.216855 L83.9956842,230.216855 Z M83.7632623,223.775449 L76.3921686,223.775449 L76.3921686,188.347715 L83.7632623,188.347715 C87.7697727,188.347715 90.9185358,189.653704 93.2095514,192.265683 C95.500567,194.877663 96.6460748,198.231178 96.6460748,202.32623 L96.6460748,202.32623 L96.6460748,209.730527 C96.6460748,213.86985 95.500567,217.245501 93.2095514,219.85748 C90.9185358,222.469459 87.7697727,223.775449 83.7632623,223.775449 L83.7632623,223.775449 Z M115.866573,230.216855 L119.718136,218.927793 L138.643917,218.927793 L142.462276,230.216855 L150.663448,230.216855 L133.098995,181.873105 L125.462276,181.873105 L107.698604,230.216855 L115.866573,230.216855 Z M136.352901,212.187558 L122.042354,212.187558 L129.147823,191.535215 L129.347042,191.535215 L136.352901,212.187558 Z M164.50504,230.216855 L164.50504,194.98834 L164.704259,194.921933 L186.153478,230.216855 L194.188634,230.216855 L194.188634,181.873105 L186.153478,181.873105 L186.153478,217.068418 L185.954259,217.134824 L164.50504,181.873105 L156.436681,181.873105 L156.436681,230.216855 L164.50504,230.216855 Z" id="VIDAN" fill="#000000" fill-rule="nonzero"></path>
                <g id="Group-17" stroke="#000000">
                    <polygon id="Rectangle" fill="#FFFFFF" points="0 20.6983211 71 0.216855318 71 70.7353895 0 91.2168553"></polygon>
                    <polygon id="Rectangle-Copy-18" fill="#FFFFFF" points="35 29.9106201 75 18.2168553 75 58.5230906 35 70.2168553"></polygon>
                    <polygon id="Rectangle-Copy-28" fill="#FFFFFF" points="46 55.9106201 86 44.2168553 86 84.5230906 46 96.2168553"></polygon>
                    <polygon id="Rectangle-Copy-18" fill="#FFFFFF" points="78 37.7786806 118 26.2168553 118 96.6550301 78 108.216855"></polygon>
                    <polygon id="Rectangle-Copy-24" fill="#FFFFFF" points="99 57.3667799 139 45.2168553 139 116.066931 99 128.216855"></polygon>
                    <polygon id="Rectangle-Copy-25" fill="#FFFFFF" points="137 58.179558 158 52.2168553 158 123.254153 137 129.216855"></polygon>
                    <polygon id="Rectangle-Copy-26" fill="#FFFFFF" points="131 79.6983211 202 59.2168553 202 129.735389 131 150.216855"></polygon>
                    <line x1="0" y1="20.2168553" x2="131" y2="81.2168553" id="Path-8"></line>
                    <line x1="0" y1="91.2168553" x2="131" y2="151.216855" id="Path-9"></line>
                    <line x1="71" y1="0.216855318" x2="202" y2="60.2168553" id="Path-10"></line>
                </g>
            </g>
        </g>
    </g>
</svg>