<?xml version="1.0" encoding="UTF-8"?>
<svg width="230px" height="414px" viewBox="0 0 230 414" version="1.1" xmlns="http://www.w3.org/2000/svg" xmlns:xlink="http://www.w3.org/1999/xlink">
    <title>Group</title>
    <g id="design" stroke="none" stroke-width="1" fill="none" fill-rule="evenodd">
        <g id="Artboard" transform="translate(-132.000000, -84.000000)">
            <g id="Group" transform="translate(132.000000, 85.000000)">
                <text id="Visual-and-dynamic-a" font-family="Piazzolla-Light, Piazzolla" font-size="36" font-weight="300" line-spacing="36" letter-spacing="0.0857142" fill="#000000">
                    <tspan x="0" y="300.216855">Visual and </tspan>
                    <tspan x="0" y="336.216855">dynamic </tspan>
                    <tspan x="0" y="372.216855">arrangements </tspan>
                    <tspan x="0" y="408.216855">of narratives</tspan>
                </text>
                <path d="M29.5275591,236 L50,179 L39.8031496,179 L26.1023622,221.162775 L25.1181102,225.038462 L24.8818898,225.038462 L23.8582677,221.084478 L10.1968504,179 L0,179 L20.4330709,236 L29.5275591,236 Z M67,236 L67,179 L58,179 L58,236 L67,236 Z M98.5182482,236 C105.763382,236 111.654957,233.755495 116.192974,229.266484 C120.730991,224.777473 123,218.970467 123,211.845467 L123,211.845467 L123,203.193681 C123,196.09478 120.730991,190.287775 116.192974,185.772665 C111.654957,181.257555 105.763382,179 98.5182482,179 L98.5182482,179 L80,179 L80,236 L98.5182482,236 Z M98.7344262,228 L90,228 L90,186 L98.7344262,186 C103.481967,186 107.213115,187.548266 109.927869,190.644799 C112.642623,193.741331 114,197.716963 114,202.571696 L114,202.571696 L114,211.349578 C114,216.256795 112.642623,220.258669 109.927869,223.355201 C107.213115,226.451734 103.481967,228 98.7344262,228 L98.7344262,228 Z M135.695518,236 L140.267388,222.68956 L162.732612,222.68956 L167.26507,236 L177,236 L156.150696,179 L147.085781,179 L126,236 L135.695518,236 Z M160,214 L143,214 L151.440835,190 L151.677494,190 L160,214 Z M193.403694,236 L193.403694,194.463599 L193.635884,194.385302 L218.635004,236 L228,236 L228,179 L218.635004,179 L218.635004,220.497253 L218.402814,220.575549 L193.403694,179 L184,179 L184,236 L193.403694,236 Z" id="VIDAN" fill="#000000" fill-rule="nonzero"></path>
                <g id="Group-17" transform="translate(14.000000, 0.000000)" stroke="#000000">
                    <polygon id="Rectangle" fill="#FFFFFF" points="0 20.6983211 71 0.216855318 71 70.7353895 0 91.2168553"></polygon>
                    <polygon id="Rectangle-Copy-18" fill="#FFFFFF" points="39 30.9106201 79 19.2168553 79 59.5230906 39 71.2168553"></polygon>
                    <polygon id="Rectangle-Copy-28" fill="#FFFFFF" points="46 61.9106201 86 50.2168553 86 90.5230906 46 102.216855"></polygon>
                    <polygon id="Rectangle-Copy-18" fill="#FFFFFF" points="85 38.7786806 125 27.2168553 125 97.6550301 85 109.216855"></polygon>
                    <polygon id="Rectangle-Copy-24" fill="#FFFFFF" points="111 58.3667799 151 46.2168553 151 117.066931 111 129.216855"></polygon>
                    <polygon id="Rectangle-Copy-26" fill="#FFFFFF" points="131 79.6983211 202 59.2168553 202 129.735389 131 150.216855"></polygon>
                    <line x1="0" y1="20.2168553" x2="131" y2="81.2168553" id="Path-8"></line>
                    <line x1="0" y1="91.2168553" x2="131" y2="151.216855" id="Path-9"></line>
                    <line x1="71" y1="0.216855318" x2="202" y2="60.2168553" id="Path-10"></line>
                </g>
            </g>
        </g>
    </g>
</svg>