<?xml version="1.0" encoding="UTF-8"?>
<svg width="56px" height="30px" viewBox="0 0 56 30" version="1.1" xmlns="http://www.w3.org/2000/svg" xmlns:xlink="http://www.w3.org/1999/xlink">
    <title>right-arrow-yellow</title>
    <g id="right-arrow-yellow" stroke="none" stroke-width="1" fill="none" fill-rule="evenodd">
        <g id="Group-8-Copy" transform="translate(28.000000, 15.000000) rotate(-315.000000) translate(-28.000000, -15.000000) translate(8.000000, -5.000000)" fill="black" fill-rule="nonzero">
            <path d="M39.1027226,0 C39.5505499,0 39.8728882,0.303944345 39.9697319,0.670387409 C39.9794086,0.7049701 39.9867247,0.740726315 39.991771,0.777174863 C39.9914644,0.778611713 39.9916483,0.779946412 39.9918292,0.781281596 C39.9933059,0.788261112 39.9946308,0.799411412 39.9957417,0.810621921 L40,0.897009967 L40,20.0332226 C40,20.5286275 39.5835207,20.9302326 39.0697674,20.9302326 C38.586235,20.9302326 38.188869,20.5744855 38.1437932,20.1196106 L38.1395349,20.0332226 L38.139,3.124 L1.52868373,39.7377076 C1.17897618,40.0874308 0.611988214,40.0874308 0.262280663,39.7377076 C-0.0655701657,39.409842 -0.0860608425,38.8909988 0.200808633,38.539261 L0.262280663,38.4712477 L36.9404316,1.79104478 L19.9991024,1.79104478 C19.5336331,1.79104478 19.1511114,1.43588771 19.1077195,0.98176717 L19.1036202,0.895522388 C19.1036202,0.430032169 19.4587613,0.0474933265 19.9128615,0.00409944959 L19.9991024,0 L39.1027226,0 Z" id="Combined-Shape"></path>
        </g>
    </g>
</svg>
